#!OML:ASF E:/inclinewalkrobotboard/Project1/Captureday1/Session1/subject1.ASF
:FULLY-SPECIFIED
:DEGREES
13
root 0 0 0 1.1079510693867496 -3.740191633535038 1.8028294752775902
lowerback 11.995320630567369 0.8620096782595454 -0.07692109347793807
upperback -4.182507316530115 1.0910384907251933 -0.5396224275878772
thorax -11.297354043644011 0.5003904680446172 -0.7746327517126818
lowerneck -5.922066125055111 1.470114185030068 4.520640947863949
upperneck 18.040821912836552 2.9154528960971224 -8.266557688900278
head 6.615807547902457 1.061714717926236 -3.194382758231853
rclavicle -1.235080625956156E-15 3.992093511251845E-16
rhumerus 19.641367004542136 14.047396392007002 -47.80817251865561
rradius 72.07059058026266
rwrist 27.21873659117599
rhand -34.883373974791986 -57.52902877628582
rfingers 7.125020000000043
rthumb -8.02487937330765 -87.30858468328881
lclavicle 1.0716357469272913E-15 -2.7156359649018787E-15
lhumerus 20.599496161448734 -12.313596674161287 45.61698777791931
lradius 69.53488645719666
lwrist -22.203873521309657
lhand -44.75681427035972 -70.15030685161668
lfingers 7.125020000000015
lthumb -17.56461097704774 -41.04369120465714
rfemur -25.191156001748716 -2.162444296721167 16.896485675510984
rtibia 54.198123628771405
rfoot -28.22690642992497 -16.76458088923505
rtoes -17.85486051629545
lfemur -27.442826530095203 2.4823229472173387 -18.264936160858845
ltibia 53.66165818806852
lfoot -31.885987741244413 -3.2529249948976675
ltoes -19.563721695677707
14
root 0 0 0 1.107916999515859 -3.740228910544844 1.8028178553668641
lowerback 11.995319044341645 0.8620073026342565 -0.07690632810870235
upperback -4.182487614925995 1.0910384287848933 -0.5396120842455039
thorax -11.297330874452738 0.5003899657557507 -0.7746299832114548
lowerneck -5.921974999449633 1.4701001848962933 4.520664906113594
upperneck 18.040750282690443 2.9154377504766344 -8.266613035536977
head 6.6157686160448925 1.0617079307167243 -3.1944054134068876
rclavicle -1.2346423997027527E-15 3.9872573041023444E-16
rhumerus 19.64142876284788 14.047463707623665 -47.80814065681687
rradius 72.07060649421724
rwrist 27.21870828436233
rhand -34.8832311938977 -57.52881555880468
rfingers 7.125020000000043
rthumb -8.024741282596695 -87.30836985358808
lclavicle 1.0722730611854716E-15 -2.716257950547647E-15
lhumerus 20.59951495137242 -12.31368207648596 45.61687279246544
lradius 69.53492660613412
lwrist -22.203899412628093
lhand -44.7567464040516 -70.14991245682991
lfingers 7.125020000000015
lthumb -17.564545500812343 -41.04328760010104
rfemur -25.191158035178244 -2.1624447797916253 16.896489165826182
rtibia 54.19812700209327
rfoot -28.226924005401262 -16.764580298030385
rtoes -17.854862746022345
lfemur -27.442799710317296 2.482339719364182 -18.26493055688579
ltibia 53.66164121341518
lfoot -31.886007106470885 -3.2529092403395756
ltoes -19.563849648934575
15
root 0 0 0 1.107900151618729 -3.7402481762320194 1.802811838692831
lowerback 11.995316846963219 0.862005949154135 -0.07689904268236294
upperback -4.182479054836129 1.0910381246031589 -0.5396069416359639
thorax -11.297319911482033 0.5003895972243527 -0.7746284922975865
lowerneck -5.921930944345007 1.470094151171244 4.520675808270585
upperneck 18.04071922267883 2.915431605611573 -8.266638604856356
head 6.615750926951728 1.061705177886779 -3.194415803364986
rclavicle -1.2347315147535066E-15 3.988239930066536E-16
rhumerus 19.641463378329185 14.047494409311462 -47.80811429352431
rradius 72.07062767191051
rwrist 27.218711557192943
rhand -34.88317630479703 -57.52875956550537
rfingers 7.125020000000043
rthumb -8.02468751754042 -87.30831212238907
lclavicle 1.0721257383064287E-15 -2.7161111964579684E-15
lhumerus 20.599540590570683 -12.313722473107104 45.61683972001925
lradius 69.53495319016656
lwrist -22.20390256557493
lhand -44.75673056330342 -70.14979024221803
lfingers 7.125020000000015
lthumb -17.564530654549433 -41.04316556342627
rfemur -25.191152120929857 -2.1624438296153894 16.89649296507306
rtibia 54.19812856908336
rfoot -28.226934030319878 -16.76457980512311
rtoes -17.854862752691012
lfemur -27.442783484229683 2.482348812578868 -18.264924456564035
ltibia 53.66163466769501
lfoot -31.88601258834405 -3.2528974050642905
ltoes -19.563928684832035
16
root 0 0 0 1.1078912943523629 -3.7403887164968834 1.8027736532047287
lowerback 11.995071047781105 0.861971279177299 -0.07692106520552261
upperback -4.182651454650941 1.0909839648565383 -0.5395966766073195
thorax -11.297369406865835 0.5003656499511763 -0.7745922627324421
lowerneck -5.922058376535736 1.4702367003767411 4.520574088692804
upperneck 18.04137143358136 2.9156503625848025 -8.266416632027894
head 6.6159796832204885 1.0618020122146303 -3.194314336841382
rclavicle -1.250407853016196E-15 4.176681661646527E-16
rhumerus 19.642107725919686 14.047436072606306 -47.80784693214369
rradius 72.07169471692681
rwrist 27.219667797594436
rhand -34.884840507473946 -57.532440422124665
rfingers 7.125020000000043
rthumb -8.026245078257743 -87.31205447619698
lclavicle 1.0374548768088703E-15 -2.692253581728231E-15
lhumerus 20.59976418249842 -12.312266759337819 45.61956516478774
lradius 69.53458665138747
lwrist -22.2031233528891
lhand -44.758923361060894 -70.16109513929916
lfingers 7.125020000000015
lthumb -17.56649197378963 -41.05502157550299
rfemur -25.190044128223306 -2.162472324467256 16.89561754659489
rtibia 54.19657324126201
rfoot -28.225343510858863 -16.76384677837234
rtoes -17.856336707693348
lfemur -27.441163997062198 2.4817097171449567 -18.264024268955712
ltibia 53.65905375529577
lfoot -31.88280834851708 -3.252571079509337
ltoes -19.56733081134783
17
root 0 0 0 1.1080153090312324 -3.7401612485774027 1.802837544034636
lowerback 11.9952693166598 0.8620085694420417 -0.0769470233694248
upperback -4.182582502144995 1.0910304309796839 -0.5396388137300109
thorax -11.297407779591083 0.5003878894434213 -0.7746329548277032
lowerneck -5.922271233291517 1.4701698727550596 4.52057188774705
upperneck 18.041102699191008 2.915527057671616 -8.266403325633092
head 6.615933083501481 1.0617475003608248 -3.1943174459739314
rclavicle -1.2283241216150993E-15 3.9666199477457013E-16
rhumerus 19.641594762934705 14.047586480514408 -47.80805446770156
rradius 72.07071215333053
rwrist 27.21872381156528
rhand -34.88327001078589 -57.528873337133405
rfingers 7.125020000000043
rthumb -8.024785301270366 -87.30839603159689
lclavicle 1.081792664934805E-15 -2.7188927112382168E-15
lhumerus 20.5991799211957 -12.313222801372959 45.61716972608537
lradius 69.5347654700447
lwrist -22.203909289451566
lhand -44.75685465414007 -70.15137306416317
lfingers 7.125020000000015
lthumb -17.56467823988956 -41.044751670231385
rfemur -25.190916904289857 -2.162428198011891 16.896492580154487
rtibia 54.19822858051716
rfoot -28.226723812638113 -16.76442096084146
rtoes -17.855131406304267
lfemur -27.442712527038267 2.482272804523344 -18.264877282844115
ltibia 53.66144309037698
lfoot -31.885721191778444 -3.2530567026329607
ltoes -19.564042611088187
